<?xml version="1.0" encoding="UTF-8" standalone="no"?>
<svg
   height="128"
   width="128"
   version="1.1"
   id="svg7"
   xmlns="http://www.w3.org/2000/svg"
   xmlns:svg="http://www.w3.org/2000/svg">
  <defs
     id="defs7" />
  <rect
     x="2"
     y="2"
     width="124"
     height="124"
     rx="14"
     fill="#363d52"
     stroke="#212532"
     stroke-width="4"
     id="rect1"
     style="fill:#1d9b88;fill-opacity:1;stroke:#23594e;stroke-opacity:1" />
  <g
     id="g2"
     transform="matrix(-0.125,0,0,0.125,109,136.5)"
     style="fill:#f9f9f9">
    <path
       d="m 300,-280 q -61.5,0 -116.25,-23.625 Q 129,-327.25 88.125,-368.125 47.25,-409 23.625,-463.75 0,-518.5 0,-580 0,-642.25 23.625,-696.625 47.25,-751 88.125,-791.875 129,-832.75 183.75,-856.375 238.5,-880 300,-880 q 40.5,0 78.75,10.5 38.25,10.5 71.25,30 -68.25,39.75 -109.125,107.625 Q 300,-664 300,-580 q 0,84 40.875,151.875 Q 381.75,-360.25 450,-320.5 417,-301 378.75,-290.5 340.5,-280 300,-280 Z m 0,-60 h 15.75 q 7.5,0 14.25,-1.5 Q 287.25,-391 263.625,-452.125 240,-513.25 240,-580 240,-646.75 263.625,-707.875 287.25,-769 330,-818.5 323.25,-820 315.75,-820 H 300 q -99.75,0 -169.875,70.125 Q 60,-679.75 60,-580 q 0,99.75 70.125,169.875 Q 200.25,-340 300,-340 Z m -60,-240 z"
       id="path1"
       style="fill:#f9f9f9;stroke-width:0.75" />
    <path
       d="m 424.8,-417.775 98.55,-98.55 -37.8,-37.8 -98.55,98.55 z m 248.4,0 37.8,-37.8 -124.2,-124.2 30.6,-30.6 12.6,12.6 22.95,-22.95 v 36.9 l 12.6,12.6 54.45,-54.45 -12.6,-12.6 h -36.9 l 22.5,-22.5 -63.9,-63.9 q -9,-9 -19.35,-13.05 -10.35,-4.05 -21.15,-4.05 -10.8,0 -21.15,4.05 -10.35,4.05 -19.35,13.05 l 41.4,41.4 -22.5,22.5 12.6,12.6 -30.6,30.6 -40.5,-40.5 q 1.8,-4.95 2.925,-10.35 1.125,-5.4 1.125,-10.8 0,-26.55 -18.225,-44.775 -18.225,-18.225 -44.775,-18.225 -6.75,0 -12.825,1.35 -6.075,1.35 -12.375,4.05 l 44.55,44.55 -32.4,32.4 -44.55,-44.55 q -3.15,6.3 -4.275,12.375 -1.125,6.075 -1.125,12.825 0,26.55 18.225,44.775 18.225,18.225 44.775,18.225 5.4,0 10.8,-0.9 5.4,-0.9 10.35,-3.15 z"
       id="path1-2"
       style="fill:#f9f9f9;stroke-width:0.45" />
  </g>
</svg>
