<?xml version="1.0" encoding="UTF-8" standalone="no"?>
<svg
   height="128"
   width="128"
   version="1.1"
   id="svg7"
   xmlns="http://www.w3.org/2000/svg"
   xmlns:svg="http://www.w3.org/2000/svg">
  <defs
     id="defs7" />
  <rect
     x="2"
     y="2"
     width="124"
     height="124"
     rx="14"
     fill="#363d52"
     stroke="#212532"
     stroke-width="4"
     id="rect1"
     style="fill:#414f7c;fill-opacity:1;stroke:#2e3856;stroke-opacity:1" />
  <path
     d="M 74,107.75 V 97.5 Q 85.25,94.25 92.125,85 99,75.75 99,64 99,52.25 92.125,43 85.25,33.75 74,30.5 V 20.25 Q 89.5,23.75 99.25,35.9375 109,48.125 109,64 109,79.875 99.25,92.0625 89.5,104.25 74,107.75 Z M 19,79.125 v -30 h 20 l 25,-25 v 80 l -25,-25 z m 55,5 v -40.25 q 5.875,2.75 9.1875,8.25 3.3125,5.5 3.3125,12 0,6.375 -3.3125,11.8125 Q 79.875,81.375 74,84.125 Z M 54,48.375 43.25,59.125 H 29 v 10 H 43.25 L 54,79.875 Z m -12.5,15.75 z"
     id="path1"
     style="fill:#f9f9f9;stroke-width:0.125" />
</svg>
