<?xml version="1.0" encoding="UTF-8" standalone="no"?>
<svg
   height="128"
   width="128"
   version="1.1"
   id="svg7"
   xmlns="http://www.w3.org/2000/svg"
   xmlns:svg="http://www.w3.org/2000/svg">
  <defs
     id="defs7" />
  <rect
     x="2"
     y="2"
     width="124"
     height="124"
     rx="14"
     fill="#363d52"
     stroke="#212532"
     stroke-width="4"
     id="rect1"
     style="fill:#bd7c05;fill-opacity:1;stroke:#9b6204;stroke-opacity:1" />
  <path
     d="M 59,89 H 69 V 69 H 89 V 59 H 69 V 39 H 59 V 59 H 39 v 10 h 20 z m 5,25 Q 53.625,114 44.5,110.0625 35.375,106.125 28.625,99.375 21.875,92.625 17.9375,83.5 14,74.375 14,64 14,53.625 17.9375,44.5 21.875,35.375 28.625,28.625 35.375,21.875 44.5,17.9375 53.625,14 64,14 q 10.375,0 19.5,3.9375 9.125,3.9375 15.875,10.6875 6.75,6.75 10.6875,15.875 Q 114,53.625 114,64 114,74.375 110.0625,83.5 106.125,92.625 99.375,99.375 92.625,106.125 83.5,110.0625 74.375,114 64,114 Z m 0,-10 Q 80.75,104 92.375,92.375 104,80.75 104,64 104,47.25 92.375,35.625 80.75,24 64,24 47.25,24 35.625,35.625 24,47.25 24,64 24,80.75 35.625,92.375 47.25,104 64,104 Z m 0,-40 z"
     id="path1"
     style="fill:#f9f9f9;stroke-width:0.125" />
</svg>
