<?xml version="1.0" encoding="UTF-8" standalone="no"?>
<svg
   height="128"
   width="128"
   version="1.1"
   id="svg7"
   xmlns="http://www.w3.org/2000/svg"
   xmlns:svg="http://www.w3.org/2000/svg">
  <defs
     id="defs7" />
  <rect
     x="2"
     y="2"
     width="124"
     height="124"
     rx="14"
     fill="#363d52"
     stroke="#212532"
     stroke-width="4"
     id="rect1"
     style="fill:#417c45;fill-opacity:1;stroke:#2e5632;stroke-opacity:1" />
  <path
     d="M 34,119 H 19 q -4.125,0 -7.0625,-2.9375 Q 9,113.125 9,109 V 94 h 10 v 15 h 15 z m 60,0 v -10 h 15 V 94 h 10 v 15 q 0,4.125 -2.9375,7.0625 Q 113.125,119 109,119 Z M 64,96.5 Q 49,96.5 36.8125,87.625 24.625,78.75 19,64 24.625,49.25 36.8125,40.375 49,31.5 64,31.5 79,31.5 91.1875,40.375 103.375,49.25 109,64 103.375,78.75 91.1875,87.625 79,96.5 64,96.5 Z m 0,-10 q 11,0 20.125,-6 9.125,-6 14,-16.5 Q 93.25,53.5 84.125,47.5 75,41.5 64,41.5 q -11,0 -20.125,6 -9.125,6 -14,16.5 4.875,10.5 14,16.5 9.125,6 20.125,6 z m 0,-5 q 7.25,0 12.375,-5.125 Q 81.5,71.25 81.5,64 81.5,56.75 76.375,51.625 71.25,46.5 64,46.5 56.75,46.5 51.625,51.625 46.5,56.75 46.5,64 q 0,7.25 5.125,12.375 Q 56.75,81.5 64,81.5 Z m 0,-10 q -3.125,0 -5.3125,-2.1875 Q 56.5,67.125 56.5,64 56.5,60.875 58.6875,58.6875 60.875,56.5 64,56.5 q 3.125,0 5.3125,2.1875 Q 71.5,60.875 71.5,64 q 0,3.125 -2.1875,5.3125 Q 67.125,71.5 64,71.5 Z M 9,34 V 19 Q 9,14.875 11.9375,11.9375 14.875,9 19,9 H 34 V 19 H 19 v 15 z m 100,0 V 19 H 94 V 9 h 15 q 4.125,0 7.0625,2.9375 Q 119,14.875 119,19 V 34 Z M 64,64 Z"
     id="path1"
     style="fill:#f9f9f9;stroke-width:0.125" />
</svg>
