<?xml version="1.0" encoding="UTF-8" standalone="no"?>
<svg
   height="128"
   width="128"
   version="1.1"
   id="svg7"
   xmlns="http://www.w3.org/2000/svg"
   xmlns:svg="http://www.w3.org/2000/svg">
  <defs
     id="defs7" />
  <rect
     x="2"
     y="2"
     width="124"
     height="124"
     rx="14"
     fill="#363d52"
     stroke="#212532"
     stroke-width="4"
     id="rect1"
     style="fill:#7c415f;fill-opacity:1;stroke:#562e42;stroke-opacity:1" />
  <path
     d="M 64,114 42.75,92.75 49.875,85.625 59,94.75 V 69 h 10 v 25.625 l 9,-9.125 7.25,7.25 z M 35.25,85.25 14,64 35.125,42.875 42.25,50 l -9,9 H 64 V 69 H 33.375 l 9.125,9 z m 57.5,0 L 85.625,78.125 94.75,69 H 64 V 59 H 94.625 L 85.5,50 92.75,42.75 114,64 Z M 59,59 V 33.25 L 49.875,42.375 42.75,35.25 64,14 85.25,35.25 78.125,42.375 69,33.25 V 59 Z"
     id="path1"
     style="fill:#f9f9f9;stroke-width:0.125" />
</svg>
