<?xml version="1.0" encoding="UTF-8" standalone="no"?>
<svg
   height="128"
   width="128"
   version="1.1"
   id="svg7"
   xmlns="http://www.w3.org/2000/svg"
   xmlns:svg="http://www.w3.org/2000/svg">
  <defs
     id="defs7" />
  <rect
     x="2"
     y="2"
     width="124"
     height="124"
     rx="14"
     fill="#363d52"
     stroke="#212532"
     stroke-width="4"
     id="rect1"
     style="fill:#bd7c05;fill-opacity:1;stroke:#9b6204;stroke-opacity:1" />
  <path
     d="m 29,109 c -2.75,0 -5.10415,-0.97916 -7.0625,-2.9375 C 19.97915,104.10416 19,101.75 19,99 V 29 c 0,-2.75 0.97915,-5.104165 2.9375,-7.0625 C 23.89585,19.979165 26.25,19 29,19 h 70 c 2.75,0 5.10415,0.979165 7.0625,2.9375 C 108.02085,23.895835 109,26.25 109,29 v 70 c 0,2.75 -0.97915,5.10416 -2.9375,7.0625 C 104.10415,108.02084 101.75,109 99,109 Z M 29,99 H 99 V 29 H 29 Z m 0,-70 v 70 z"
     id="path1"
     style="fill:#f9f9f9;stroke-width:0.125" />
  <path
     d="m 64,94 c 1.75,0 3.22915,-0.60417 4.4375,-1.8125 C 69.64585,90.97916 70.25,89.5 70.25,87.75 70.25,86 69.64585,84.52084 68.4375,83.3125 67.22915,82.10417 65.75,81.5 64,81.5 c -1.75,0 -3.22915,0.60417 -4.4375,1.8125 C 58.35415,84.52084 57.75,86 57.75,87.75 c 0,1.75 0.60415,3.22916 1.8125,4.4375 C 60.77085,93.39583 62.25,94 64,94 Z M 59.5,74.875 h 9.125 c 0,-2.83333 0.3335,-5 1,-6.5 C 70.29165,66.875 71.75,65 74,62.75 76.91665,59.833335 78.85415,57.479165 79.8125,55.6875 80.77085,53.895835 81.25,51.75 81.25,49.25 c 0,-4.5 -1.625,-8.166665 -4.875,-11 C 73.125,35.416665 69,34 64,34 c -4.16665,0 -7.75,1.083335 -10.75,3.25 -3,2.166665 -5.16665,5.25 -6.5,9.25 L 55,49.875 c 0.58335,-2.166665 1.6875,-3.9375 3.3125,-5.3125 C 59.9375,43.1875 61.83335,42.5 64,42.5 c 2.41665,0 4.35415,0.645835 5.8125,1.9375 C 71.27085,45.729165 72,47.458335 72,49.625 c 0,1.666665 -0.396,3.229165 -1.1875,4.6875 -0.79165,1.458335 -2.14585,2.979165 -4.0625,4.5625 -2.75,2.416665 -4.64585,4.75 -5.6875,7 -1.04165,2.25 -1.5625,5.25 -1.5625,9 z"
     id="path1-8"
     style="fill:#f9f9f9;stroke-width:0.125" />
</svg>
