<?xml version="1.0" encoding="UTF-8" standalone="no"?>
<svg
   height="128"
   width="128"
   version="1.1"
   id="svg7"
   xmlns="http://www.w3.org/2000/svg"
   xmlns:svg="http://www.w3.org/2000/svg">
  <defs
     id="defs7" />
  <rect
     x="2"
     y="2"
     width="124"
     height="124"
     rx="14"
     fill="#363d52"
     stroke="#212532"
     stroke-width="4"
     id="rect1"
     style="fill:#bd7c05;fill-opacity:1;stroke:#9b6204;stroke-opacity:1" />
  <path
     d="m 49,21.5 v -10 h 30 v 10 z m 10,55 h 10 v -30 H 59 Z m 5,40 q -9.25,0 -17.4375,-3.5625 Q 38.375,109.375 32.25,103.25 26.125,97.125 22.5625,88.9375 19,80.75 19,71.5 19,62.25 22.5625,54.0625 26.125,45.875 32.25,39.75 38.375,33.625 46.5625,30.0625 54.75,26.5 64,26.5 71.75,26.5 78.875,29 86,31.5 92.25,36.25 l 7,-7 7,7 -7,7 Q 104,49.5 106.5,56.625 109,63.75 109,71.5 109,80.75 105.4375,88.9375 101.875,97.125 95.75,103.25 89.625,109.375 81.4375,112.9375 73.25,116.5 64,116.5 Z m 0,-10 q 14.5,0 24.75,-10.25 Q 99,86 99,71.5 99,57 88.75,46.75 78.5,36.5 64,36.5 49.5,36.5 39.25,46.75 29,57 29,71.5 29,86 39.25,96.25 49.5,106.5 64,106.5 Z m 0,-35 z"
     id="path1"
     style="fill:#f9f9f9;stroke-width:0.125" />
</svg>
