<?xml version="1.0" encoding="UTF-8" standalone="no"?>
<svg
   height="128"
   width="128"
   version="1.1"
   id="svg7"
   xmlns="http://www.w3.org/2000/svg"
   xmlns:svg="http://www.w3.org/2000/svg">
  <defs
     id="defs7" />
  <rect
     x="2"
     y="2"
     width="124"
     height="124"
     rx="14"
     fill="#363d52"
     stroke="#212532"
     stroke-width="4"
     id="rect1"
     style="fill:#bd7c05;fill-opacity:1;stroke:#9b6204;stroke-opacity:1" />
  <path
     d="M 51.142857,27.571429 V 19 h 25.714286 v 8.571429 z m 8.571428,47.142857 h 8.571429 V 49 H 59.714285 Z M 64,109 q -7.928572,0 -14.946429,-3.05357 -7.017857,-3.05357 -12.267857,-8.303573 -5.25,-5.25 -8.303572,-12.267857 -3.053571,-7.017857 -3.053571,-14.946429 0,-7.928571 3.053571,-14.946428 3.053572,-7.017857 8.303572,-12.267857 5.25,-5.25 12.267857,-8.303572 Q 56.071428,31.857143 64,31.857143 q 6.642857,0 12.75,2.142857 6.107142,2.142857 11.464285,6.214286 l 6,-6 6.000005,6 -6.000005,6 q 4.071429,5.357143 6.214285,11.464285 2.14286,6.107143 2.14286,12.75 0,7.928572 -3.053573,14.946429 -3.053572,7.017857 -8.303572,12.267857 -5.25,5.250003 -12.267857,8.303573 Q 71.928572,109 64,109 Z m 0,-8.57143 q 12.428572,0 21.214285,-8.785713 Q 94,82.857143 94,70.428571 94,58 85.214285,49.214286 76.428572,40.428571 64,40.428571 q -12.428572,0 -21.214286,8.785715 Q 34,58 34,70.428571 34,82.857143 42.785714,91.642857 51.571428,100.42857 64,100.42857 Z m 0,-29.999999 z"
     id="path1"
     style="fill:#f9f9f9;stroke-width:0.107143" />
</svg>
