<?xml version="1.0" encoding="UTF-8" standalone="no"?>
<svg
   height="128"
   width="128"
   version="1.1"
   id="svg7"
   xmlns="http://www.w3.org/2000/svg"
   xmlns:svg="http://www.w3.org/2000/svg">
  <defs
     id="defs7" />
  <rect
     x="2"
     y="2"
     width="124"
     height="124"
     rx="14"
     fill="#363d52"
     stroke="#212532"
     stroke-width="4"
     id="rect1" />
  <path
     d="M 14,39 V 24 Q 14,19.875 16.9375,16.9375 19.875,14 24,14 H 39 V 24 H 24 v 15 z m 25,75 H 24 q -4.125,0 -7.0625,-2.9375 Q 14,108.125 14,104 V 89 h 10 v 15 h 15 z m 50,0 v -10 h 15 V 89 h 10 v 15 q 0,4.125 -2.9375,7.0625 Q 108.125,114 104,114 Z M 104,39 V 24 H 89 V 14 h 15 q 4.125,0 7.0625,2.9375 Q 114,19.875 114,24 V 39 Z M 71.5,51.5 q -4.125,0 -7.0625,-2.9375 Q 61.5,45.625 61.5,41.5 61.5,37.375 64.4375,34.4375 67.375,31.5 71.5,31.5 q 4.125,0 7.0625,2.9375 Q 81.5,37.375 81.5,41.5 q 0,4.125 -2.9375,7.0625 Q 75.625,51.5 71.5,51.5 Z M 68,94 H 48 L 53,68.5 44,72 V 89 H 34 V 65.5 L 53.75,57 Q 58.125,55.125 60.1875,54.5625 62.25,54 64,54 q 2.625,0 4.875,1.375 2.25,1.375 3.625,3.625 l 5,8 q 3.25,5.25 8.8125,8.625 Q 91.875,79 99,79 V 89 Q 90.75,89 83.5625,85.5625 76.375,82.125 71.5,76.5 Z"
     id="path1"
     style="fill:#f9f9f9;stroke-width:0.125" />
</svg>
