<?xml version="1.0" encoding="UTF-8" standalone="no"?>
<svg
   height="128"
   width="128"
   version="1.1"
   id="svg7"
   xmlns="http://www.w3.org/2000/svg"
   xmlns:svg="http://www.w3.org/2000/svg">
  <defs
     id="defs7" />
  <rect
     x="2"
     y="2"
     width="124"
     height="124"
     rx="14"
     fill="#363d52"
     stroke="#212532"
     stroke-width="4"
     id="rect1"
     style="fill:#417c45;fill-opacity:1;stroke:#2e5632;stroke-opacity:1" />
  <path
     d="M 19,41.5 V 28 Q 19,24.2875 21.64375,21.64375 24.2875,19 28,19 h 13.5 v 9 H 28 V 41.5 Z M 41.5,109 H 28 q -3.7125,0 -6.35625,-2.64375 Q 19,103.7125 19,100 V 86.5 h 9 V 100 h 13.5 z m 45,0 v -9 H 100 V 86.5 h 9 V 100 q 0,3.7125 -2.64375,6.35625 Q 103.7125,109 100,109 Z M 100,41.5 V 28 H 86.5 V 19 H 100 q 3.7125,0 6.35625,2.64375 Q 109,24.2875 109,28 V 41.5 Z M 70.75,52.75 q -3.7125,0 -6.35625,-2.64375 Q 61.75,47.4625 61.75,43.75 q 0,-3.7125 2.64375,-6.35625 Q 67.0375,34.75 70.75,34.75 q 3.7125,0 6.35625,2.64375 Q 79.75,40.0375 79.75,43.75 q 0,3.7125 -2.64375,6.35625 Q 74.4625,52.75 70.75,52.75 Z M 67.6,91 h -18 L 54.1,68.05 46,71.2 V 86.5 H 37 V 65.35 L 54.775,57.7 Q 58.7125,56.0125 60.56875,55.50625 62.425,55 64,55 q 2.3625,0 4.3875,1.2375 2.025,1.2375 3.2625,3.2625 l 4.5,7.2 q 2.925,4.725 7.93125,7.7625 Q 89.0875,77.5 95.5,77.5 v 9 Q 88.075,86.5 81.60625,83.40625 75.1375,80.3125 70.75,75.25 Z"
     id="path1"
     style="fill:#f9f9f9;stroke-width:0.1125" />
</svg>
