<?xml version="1.0" encoding="UTF-8"?>
<svg width="64" height="64" version="1.1" xmlns="http://www.w3.org/2000/svg">
 <path d="m16 16h32c5.3333 0 8 2.6667 8 8v16c0 3.2667-1 5.5333-3 6.8-1.2667 0.8-2.9333 1.2-5 1.2h-32c-2.0667 0-3.7333-0.4-5-1.2-2-1.2667-3-3.5333-3-6.8v-16c0-5.3333 2.6667-8 8-8m-5 8v16c0 3.3333 1.6667 5 5 5h32c3.3333 0 5-1.6667 5-5v-16c0-3.3333-1.6667-5-5-5h-32c-3.3333 0-5 1.6667-5 5" fill="#fff"/>
 <path d="m36.95 25.55c1.3667 1.4 2.05 3.05 2.05 4.95v3c0 1.9-0.68333 3.5333-2.05 4.9l-0.05 0.05c-1.3667 1.3667-3 2.05-4.9 2.05s-3.55-0.68333-4.95-2.05c-1.3667-1.3667-2.05-3.0167-2.05-4.95v-3c0-1.9 0.66667-3.55 2-4.95l0.05-0.05c1.4-1.3333 3.05-2 4.95-2 1.9333 0 3.5833 0.68333 4.95 2.05m-4.95 1.95c-0.8 0-1.5 0.28333-2.1 0.85l-0.05 0.05c-0.56667 0.6-0.85 1.3-0.85 2.1v3c0 0.8 0.3 1.5 0.9 2.1 0.56667 0.6 1.2667 0.9 2.1 0.9 0.8 0 1.4833-0.3 2.05-0.9l0.05-0.05c0.6-0.56667 0.9-1.25 0.9-2.05v-3c0-0.83333-0.3-1.5333-0.9-2.1-0.6-0.6-1.3-0.9-2.1-0.9" fill="#fff"/>
</svg>
