<?xml version="1.0" encoding="UTF-8"?>
<svg width="64" height="64" version="1.1" xmlns="http://www.w3.org/2000/svg">
 <path d="m21.5 10c-5 0.16667-7.5 2.8333-7.5 8v15h1c0.6 0 1.1329 0.14922 1.5996 0.44922l0.40039 0.30078v-2.75h9.0996c0.16667 1.2333 0.71706 2.3167 1.6504 3.25 1.1667 1.1667 2.5833 1.75 4.25 1.75s3.0833-0.58333 4.25-1.75c0.93333-0.93333 1.4992-2.0167 1.6992-3.25h9.0508v7c0 3.5667-1.2674 6.6326-3.8008 9.1992-2.5667 2.5333-5.6326 3.8008-9.1992 3.8008h-4c-1.415 0-2.7477-0.20284-4-0.60156v2.6016c0 0.17681-0.015505 0.34736-0.041016 0.51367 1.282 0.32292 2.6285 0.48633 4.041 0.48633h4c4.4 0 8.1675-1.5659 11.301-4.6992s4.6992-6.9008 4.6992-11.301v-20c0-5.1667-2.5-7.8333-7.5-8h-21zm0.5 3h8v3.3496c-0.83333 0.26667-1.5833 0.73372-2.25 1.4004-1.1667 1.1667-1.75 2.5833-1.75 4.25v6h-9v-10c0-3.3333 1.6667-5 5-5zm12 0h8c3.3333 0 5 1.6667 5 5v10h-9v-6c0-1.6667-0.58333-3.0833-1.75-4.25-0.66667-0.66667-1.4167-1.1337-2.25-1.4004v-3.3496zm-2 6c0.83333 0 1.5504 0.30039 2.1504 0.90039 0.56667 0.56667 0.84961 1.2663 0.84961 2.0996v8c0 0.83333-0.28294 1.5504-0.84961 2.1504-0.6 0.56667-1.3171 0.84961-2.1504 0.84961s-1.5329-0.28294-2.0996-0.84961c-0.6-0.6-0.90039-1.3171-0.90039-2.1504v-8c0-0.83333 0.30039-1.5329 0.90039-2.0996 0.56667-0.6 1.2663-0.90039 2.0996-0.90039zm-18 17v2c0 2.9521 0.70864 5.6181 2.1191 8h2.8809v3.5879c1.2372 1.183 2.5703 2.1292 4 2.8359v-3.4629c-0.75309-0.49696-1.4715-1.0828-2.1504-1.7617-1.5503-1.5503-2.6283-3.2841-3.2422-5.1992h-2.6074v-6h-1z" fill="#fff"/>
 <path d="m23 36v17h-4v-7h-6.05q-0.8 0-1.4-0.6-0.55-0.55-0.55-1.35v-8.05h4v6h4v-6h4" fill="#fff"/>
</svg>
