<?xml version="1.0" encoding="UTF-8"?>
<svg width="64" height="64" version="1.1" xmlns="http://www.w3.org/2000/svg">
 <path d="m21.5 10c-5 0.16667-7.5 2.8333-7.5 8v15h3v-2h9.0996c0.16667 1.2333 0.71706 2.3167 1.6504 3.25 1.1667 1.1667 2.5833 1.75 4.25 1.75s3.0833-0.58333 4.25-1.75c0.93333-0.93333 1.4992-2.0167 1.6992-3.25h9.0508v7c0 3.5667-1.2674 6.6326-3.8008 9.1992-2.5667 2.5333-5.6326 3.8008-9.1992 3.8008h-4c-1.5746 0-3.0486-0.24646-4.4219-0.74023-0.32706 0.95552-0.82618 1.8364-1.4941 2.6445 1.8256 0.72703 3.7966 1.0957 5.916 1.0957h4c4.4 0 8.1675-1.5659 11.301-4.6992s4.6992-6.9008 4.6992-11.301v-20c0-5.1667-2.5-7.8333-7.5-8h-21zm0.5 3h8v3.3496c-0.83333 0.26667-1.5833 0.73372-2.25 1.4004-1.1667 1.1667-1.75 2.5833-1.75 4.25v6h-9v-10c0-3.3333 1.6667-5 5-5zm12 0h8c3.3333 0 5 1.6667 5 5v10h-9v-6c0-1.6667-0.58333-3.0833-1.75-4.25-0.66667-0.66667-1.4167-1.1337-2.25-1.4004v-3.3496zm-2 6c0.83333 0 1.5504 0.30039 2.1504 0.90039 0.56667 0.56667 0.84961 1.2663 0.84961 2.0996v8c0 0.83333-0.28294 1.5504-0.84961 2.1504-0.6 0.56667-1.3171 0.84961-2.1504 0.84961s-1.5329-0.28294-2.0996-0.84961c-0.6-0.6-0.90039-1.3171-0.90039-2.1504v-8c0-0.83333 0.30039-1.5329 0.90039-2.0996 0.56667-0.6 1.2663-0.90039 2.0996-0.90039zm-18 17v2c0 0.68241 0.043771 1.3481 0.11914 2h3.0234c-0.094773-0.64844-0.14258-1.3146-0.14258-2v-2h-3zm0.47461 6c0.35162 1.4127 0.90165 2.7455 1.6445 4h1.3809c0.4 0 0.75078 0.14922 1.0508 0.44922 0.3 0.3 0.44922 0.65078 0.44922 1.0508s-0.13372 0.73333-0.40039 1l-0.099609 0.099609c-0.083226 0.083226-0.17527 0.14978-0.27148 0.20703 0.15391 0.16572 0.30838 0.33182 0.4707 0.49414 0.82375 0.82375 1.6922 1.5354 2.6035 2.1426 0.015345-0.015038 0.031619-0.027712 0.046875-0.042968l0.050782-0.050782c0.7207-0.7207 1.1997-1.5509 1.4434-2.4902-0.69628-0.47432-1.3622-1.0282-1.9941-1.6602-1.5461-1.5461-2.6235-3.2746-3.2383-5.1836l-0.11133-0.015625h-3.0254z" fill="#fff"/>
 <path d="m18.5 48.6 0.1-0.1q0.4-0.4 0.4-1t-0.45-1.05-1.05-0.45h-7.5v-10h13v4h-9v2h3.5l1.5 0.2q0.9 0.25 1.7 0.8l0.7 0.6q1.6 1.6 1.6 3.9v0.5q-0.2 1.95-1.6 3.35l-0.05 0.05q-1.6 1.6-3.85 1.6h-2.65q-1.95-0.05-3.35-1.4l-0.1-0.1q-1.05-1.1-1.3-2.5l-0.1-1h4q0 0.4 0.3 0.7t0.65 0.3h2.55q0.6 0 1-0.4" fill="#fff"/>
</svg>
