<?xml version="1.0" encoding="UTF-8" standalone="no"?>
<svg
   width="256"
   height="256"
   version="1.1"
   viewBox="0 -960 10240 10240"
   id="svg2"
   sodipodi:docname="ellipsoid.svg"
   inkscape:version="1.4.3 (0d15f75042, 2025-12-25)"
   xmlns:inkscape="http://www.inkscape.org/namespaces/inkscape"
   xmlns:sodipodi="http://sodipodi.sourceforge.net/DTD/sodipodi-0.dtd"
   xmlns="http://www.w3.org/2000/svg"
   xmlns:svg="http://www.w3.org/2000/svg">
  <defs
     id="defs2" />
  <sodipodi:namedview
     id="namedview2"
     pagecolor="#ffffff"
     bordercolor="#000000"
     borderopacity="0.25"
     inkscape:showpageshadow="2"
     inkscape:pageopacity="0.0"
     inkscape:pagecheckerboard="true"
     inkscape:deskcolor="#d1d1d1"
     inkscape:zoom="1.0585938"
     inkscape:cx="41.092251"
     inkscape:cy="197.90406"
     inkscape:window-width="1920"
     inkscape:window-height="1018"
     inkscape:window-x="0"
     inkscape:window-y="0"
     inkscape:window-maximized="1"
     inkscape:current-layer="svg2" />
  <path
     d="m 5680,5520 q -415,0 -780,-157.5 Q 4535,5205 4265,4935 3995,4665 3837.5,4300 3680,3935 3680,3520 q 0,-415 157.5,-780 157.5,-365 427.5,-635 270,-270 635,-427.5 365,-157.5 780,-157.5 415,0 780,157.5 365,157.5 635,427.5 270,270 427.5,635 157.5,365 157.5,780 0,415 -157.5,780 -157.5,365 -427.5,635 -270,270 -635,427.5 -365,157.5 -780,157.5 z m 0,-400 q 670,0 1135,-465 465,-465 465,-1135 0,-670 -465,-1135 -465,-465 -1135,-465 -670,0 -1135,465 -465,465 -465,1135 0,670 465,1135 465,465 1135,465 z m 0,-1600 z"
     fill="#f9f9f9"
     id="path1"
     style="fill:#000000;fill-opacity:1;stroke-width:5" />
  <path
     d="m 5680,2520 c 552.3,0 1000,447.715 1000,1000"
     fill="none"
     stroke="#f9f9f9"
     stroke-linejoin="round"
     stroke-width="400"
     id="path2"
     style="stroke:#000000;stroke-opacity:1" />
</svg>
