<?xml version="1.0" encoding="UTF-8" standalone="no"?>
<svg
   height="128"
   width="128"
   version="1.1"
   id="svg7"
   xmlns="http://www.w3.org/2000/svg"
   xmlns:svg="http://www.w3.org/2000/svg">
  <defs
     id="defs7" />
  <rect
     x="2"
     y="2"
     width="124"
     height="124"
     rx="14"
     fill="#363d52"
     stroke="#212532"
     stroke-width="4"
     id="rect1"
     style="fill:#bd7c05;fill-opacity:1;stroke:#9b6204;stroke-opacity:1" />
  <path
     d="m 59.5,86.5 h 9 v -18 h 18 v -9 h -18 v -18 h -9 v 18 h -18 v 9 h 18 z M 64,109 Q 54.6625,109 46.45,105.45625 38.2375,101.9125 32.1625,95.8375 26.0875,89.7625 22.54375,81.55 19,73.3375 19,64 19,54.6625 22.54375,46.45 26.0875,38.2375 32.1625,32.1625 38.2375,26.0875 46.45,22.54375 54.6625,19 64,19 q 9.3375,0 17.55,3.54375 8.2125,3.54375 14.2875,9.61875 6.075,6.075 9.61875,14.2875 Q 109,54.6625 109,64 q 0,9.3375 -3.54375,17.55 -3.54375,8.2125 -9.61875,14.2875 -6.075,6.075 -14.2875,9.61875 Q 73.3375,109 64,109 Z m 0,-9 Q 79.075,100 89.5375,89.5375 100,79.075 100,64 100,48.925 89.5375,38.4625 79.075,28 64,28 48.925,28 38.4625,38.4625 28,48.925 28,64 28,79.075 38.4625,89.5375 48.925,100 64,100 Z m 0,-36 z"
     id="path1"
     style="fill:#f9f9f9;stroke-width:0.1125" />
</svg>
