<?xml version="1.0" encoding="UTF-8" standalone="no"?>
<svg
   height="128"
   width="128"
   version="1.1"
   id="svg7"
   xmlns="http://www.w3.org/2000/svg"
   xmlns:svg="http://www.w3.org/2000/svg">
  <defs
     id="defs7" />
  <rect
     x="2"
     y="2"
     width="124"
     height="124"
     rx="14"
     fill="#363d52"
     stroke="#212532"
     stroke-width="4"
     id="rect1"
     style="fill:#414f7c;fill-opacity:1;stroke:#2e3856;stroke-opacity:1" />
  <path
     d="M 37,109 V 89.875 Q 32.6125,87.9625 29.29375,84.75625 25.975,81.55 23.66875,77.5 21.3625,73.45 20.18125,68.8375 19,64.225 19,59.5 19,41.725 31.6,30.3625 44.2,19 64,19 83.8,19 96.4,30.3625 109,41.725 109,59.5 q 0,4.725 -1.18125,9.3375 -1.18125,4.6125 -3.4875,8.6625 -2.30625,4.05 -5.625,7.25625 Q 95.3875,87.9625 91,89.875 V 109 Z m 9,-9 h 4.5 v -9 h 9 v 9 h 9 v -9 h 9 v 9 H 82 V 84.025 q 4.275,-1.0125 7.59375,-3.375 3.31875,-2.3625 5.625,-5.625 2.30625,-3.2625 3.54375,-7.2 Q 100,63.8875 100,59.5 100,45.4375 90.04375,36.71875 80.0875,28 64,28 47.9125,28 37.95625,36.71875 28,45.4375 28,59.5 q 0,4.3875 1.2375,8.325 1.2375,3.9375 3.54375,7.2 2.30625,3.2625 5.68125,5.625 3.375,2.3625 7.5375,3.375 z M 57.25,77.5 h 13.5 L 64,64 Z m -9,-9 q 3.7125,0 6.35625,-2.64375 Q 57.25,63.2125 57.25,59.5 57.25,55.7875 54.60625,53.14375 51.9625,50.5 48.25,50.5 44.5375,50.5 41.89375,53.14375 39.25,55.7875 39.25,59.5 q 0,3.7125 2.64375,6.35625 Q 44.5375,68.5 48.25,68.5 Z m 31.5,0 q 3.7125,0 6.35625,-2.64375 Q 88.75,63.2125 88.75,59.5 88.75,55.7875 86.10625,53.14375 83.4625,50.5 79.75,50.5 76.0375,50.5 73.39375,53.14375 70.75,55.7875 70.75,59.5 q 0,3.7125 2.64375,6.35625 Q 76.0375,68.5 79.75,68.5 Z M 64,100 Z"
     id="path1"
     style="fill:#f9f9f9;stroke-width:0.1125" />
</svg>
