<?xml version="1.0" encoding="UTF-8" standalone="no"?>
<svg
   height="128"
   width="128"
   version="1.1"
   id="svg7"
   xmlns="http://www.w3.org/2000/svg"
   xmlns:svg="http://www.w3.org/2000/svg">
  <defs
     id="defs7" />
  <rect
     x="2"
     y="2"
     width="124"
     height="124"
     rx="14"
     fill="#363d52"
     stroke="#212532"
     stroke-width="4"
     id="rect1"
     style="fill:#417c45;fill-opacity:1;stroke:#2e5632;stroke-opacity:1" />
  <path
     d="M 19,41.5 V 28 c 0,-2.475 0.88125,-4.59375 2.64375,-6.35625 C 23.40625,19.88125 25.525,19 28,19 h 13.5 v 9 H 28 V 41.5 Z M 41.5,109 H 28 c -2.475,0 -4.59375,-0.88125 -6.35625,-2.64375 C 19.88125,104.59375 19,102.475 19,100 V 86.5 h 9 V 100 h 13.5 z m 45,0 v -9 H 100 V 86.5 h 9 V 100 c 0,2.475 -0.88125,4.59375 -2.64375,6.35625 C 104.59375,108.11875 102.475,109 100,109 Z M 100,41.5 V 28 H 86.5 V 19 H 100 c 2.475,0 4.59375,0.88125 6.35625,2.64375 C 108.11875,23.40625 109,25.525 109,28 v 13.5 z"
     id="path1"
     style="fill:#f9f9f9;stroke-width:0.1125" />
  <path
     d="M 64,86.5 C 56.21875,86.5 49.304687,84.414062 43.257812,80.242187 37.210937,76.070312 32.875,70.65625 30.25,64 32.875,57.437499 37.210937,52.046875 43.257812,47.828125 49.304687,43.609375 56.21875,41.5 64,41.5 c 7.6875,0 14.554687,2.109375 20.601562,6.328125 C 90.648437,52.046875 95.03125,57.437499 97.75,64 95.03125,70.65625 90.648437,76.070312 84.601562,80.242187 78.554687,84.414062 71.6875,86.5 64,86.5 Z m 0,-8.4375 c 5.15625,0 9.890625,-1.242188 14.203125,-3.726563 4.3125,-2.484375 7.6875,-5.929687 10.125,-10.335937 -2.4375,-4.312501 -5.8125,-7.734375 -10.125,-10.265625 C 73.890625,51.203125 69.15625,49.9375 64,49.9375 c -5.25,0 -10.03125,1.265625 -14.34375,3.796875 -4.3125,2.53125 -7.6875,5.953124 -10.125,10.265625 2.4375,4.40625 5.8125,7.851562 10.125,10.335937 C 53.96875,76.820312 58.75,78.0625 64,78.0625 Z m 0,-5.625 c 2.34375,0 4.335937,-0.796875 5.976562,-2.390625 C 71.617187,68.453125 72.4375,66.4375 72.4375,64 c 0,-2.34375 -0.820313,-4.335938 -2.460938,-5.976563 C 68.335937,56.382812 66.34375,55.5625 64,55.5625 c -2.4375,0 -4.453125,0.820312 -6.046875,2.460937 C 56.359375,59.664062 55.5625,61.65625 55.5625,64 c 0,2.4375 0.796875,4.453125 2.390625,6.046875 C 59.546875,71.640625 61.5625,72.4375 64,72.4375 Z"
     id="path1-6"
     style="fill:#f9f9f9;fill-opacity:1;stroke-width:0.140624" />
</svg>
