<?xml version="1.0" encoding="UTF-8" standalone="no"?>
<svg
   height="128"
   width="128"
   version="1.1"
   id="svg7"
   xmlns="http://www.w3.org/2000/svg"
   xmlns:svg="http://www.w3.org/2000/svg">
  <defs
     id="defs7" />
  <rect
     x="2"
     y="2"
     width="124"
     height="124"
     rx="14"
     fill="#363d52"
     stroke="#212532"
     stroke-width="4"
     id="rect1"
     style="fill:#7c415f;fill-opacity:1;stroke:#562e42;stroke-opacity:1" />
  <path
     d="m 64,109 c -5.875003,0 -11.421872,-1.04688 -16.640625,-3.14062 -5.218751,-2.09375 -9.84375,-5 -13.875,-8.718755 -4.03125,-3.718751 -7.328126,-8.093749 -9.890625,-13.125 C 21.031251,78.984374 19.499999,73.5625 19,67.75 h 7.5 c 0.499999,4.5 1.703126,8.703124 3.609375,12.609375 1.906249,3.906251 4.375001,7.359375 7.40625,10.359375 3.031249,3 6.515625,5.421874 10.453125,7.265625 3.9375,1.843753 8.15625,2.953125 12.65625,3.328125 L 54.8125,95.5 l 5.25,-5.25 16.875,16.875 c -2.125003,0.6875 -4.265625,1.17188 -6.421875,1.45313 C 68.359375,108.85938 66.187497,109 64,109 Z M 101.5,60.25 C 101.0625,55.75 99.875003,51.546875 97.9375,47.640625 95.999997,43.734375 93.515622,40.28125 90.484375,37.28125 87.453128,34.28125 83.96875,31.859375 80.03125,30.015625 76.09375,28.171875 71.875,27.0625 67.375,26.6875 l 5.8125,5.8125 -5.25,5.25 -16.875,-16.875 c 2.125003,-0.6875 4.265625,-1.171875 6.421875,-1.453125 C 59.640625,19.140625 61.812503,19 64,19 c 5.875003,0 11.421872,1.046875 16.640625,3.140625 5.218753,2.09375 9.84375,5 13.875,8.71875 4.03125,3.71875 7.328125,8.09375 9.890625,13.125 C 106.96875,49.015625 108.5,54.4375 109,60.25 Z"
     id="path1-7"
     style="fill:#f9f9f9;fill-opacity:1;stroke-width:0.09375" />
  <path
     d="M 64,86.5 C 56.21875,86.5 49.304687,84.414062 43.257812,80.242187 37.210937,76.070312 32.875,70.65625 30.25,64 32.875,57.437499 37.210937,52.046875 43.257812,47.828125 49.304687,43.609375 56.21875,41.5 64,41.5 c 7.6875,0 14.554687,2.109375 20.601562,6.328125 C 90.648437,52.046875 95.03125,57.437499 97.75,64 95.03125,70.65625 90.648437,76.070312 84.601562,80.242187 78.554687,84.414062 71.6875,86.5 64,86.5 Z m 0,-8.4375 c 5.15625,0 9.890625,-1.242188 14.203125,-3.726563 4.3125,-2.484375 7.6875,-5.929687 10.125,-10.335937 -2.4375,-4.312501 -5.8125,-7.734375 -10.125,-10.265625 C 73.890625,51.203125 69.15625,49.9375 64,49.9375 c -5.25,0 -10.03125,1.265625 -14.34375,3.796875 -4.3125,2.53125 -7.6875,5.953124 -10.125,10.265625 2.4375,4.40625 5.8125,7.851562 10.125,10.335937 C 53.96875,76.820312 58.75,78.0625 64,78.0625 Z m 0,-5.625 c 2.34375,0 4.335937,-0.796875 5.976562,-2.390625 C 71.617187,68.453125 72.4375,66.4375 72.4375,64 c 0,-2.34375 -0.820313,-4.335938 -2.460938,-5.976563 C 68.335937,56.382812 66.34375,55.5625 64,55.5625 c -2.4375,0 -4.453125,0.820312 -6.046875,2.460937 C 56.359375,59.664062 55.5625,61.65625 55.5625,64 c 0,2.4375 0.796875,4.453125 2.390625,6.046875 C 59.546875,71.640625 61.5625,72.4375 64,72.4375 Z"
     id="path1-6"
     style="fill:#f9f9f9;fill-opacity:1;stroke-width:0.140624" />
</svg>
