<?xml version="1.0" encoding="UTF-8" standalone="no"?>
<svg
   height="128"
   width="128"
   version="1.1"
   id="svg7"
   xmlns="http://www.w3.org/2000/svg"
   xmlns:svg="http://www.w3.org/2000/svg">
  <defs
     id="defs7" />
  <rect
     x="2"
     y="2"
     width="124"
     height="124"
     rx="14"
     fill="#363d52"
     stroke="#212532"
     stroke-width="4"
     id="rect1"
     style="fill:#7c415f;fill-opacity:1;stroke:#562e42;stroke-opacity:1" />
  <path
     d="M 64,109 44.875,89.875 51.2875,83.4625 59.5,91.675 V 68.5 h 9 v 23.0625 l 8.1,-8.2125 6.525,6.525 z M 38.125,83.125 19,64 38.0125,44.9875 44.425,51.4 l -8.1,8.1 H 64 v 9 H 36.4375 l 8.2125,8.1 z m 51.75,0 L 83.4625,76.7125 91.675,68.5 H 64 v -9 H 91.5625 L 83.35,51.4 89.875,44.875 109,64 Z M 59.5,59.5 V 36.325 L 51.2875,44.5375 44.875,38.125 64,19 83.125,38.125 76.7125,44.5375 68.5,36.325 V 59.5 Z"
     id="path1"
     style="fill:#f9f9f9;stroke-width:0.1125" />
</svg>
