<?xml version="1.0" encoding="UTF-8" standalone="no"?>
<svg
   height="128"
   width="128"
   version="1.1"
   id="svg7"
   xmlns="http://www.w3.org/2000/svg"
   xmlns:svg="http://www.w3.org/2000/svg">
  <defs
     id="defs7" />
  <rect
     x="2"
     y="2"
     width="124"
     height="124"
     rx="14"
     fill="#363d52"
     stroke="#212532"
     stroke-width="4"
     id="rect1"
     style="fill:#bd7c05;fill-opacity:1;stroke:#9b6204;stroke-opacity:1" />
  <path
     d="m 19,29 c 0,-2.75 0.97916,-5.10416 2.9375,-7.0625 C 23.89584,19.97916 26.25,19 29,19 h 70 c 2.75,0 5.10416,0.97916 7.0625,2.9375 C 108.02084,23.89584 109,26.25 109,29 v 70 c 0,2.75 -0.97916,5.10416 -2.9375,7.0625 C 104.10416,108.02084 101.75,109 99,109 H 29 c -2.75,0 -5.10416,-0.97916 -7.0625,-2.9375 C 19.97916,104.10416 19,101.75 19,99 Z M 64,99 H 99 V 29 H 64 Z"
     id="path1-1"
     style="fill:#f9f9f9;stroke-width:0.125" />
</svg>
